<svg id="Layer_1" data-name="Layer 1" xmlns="http://www.w3.org/2000/svg" viewBox="0 0 126.18 69.42"><defs><style>.cls-1{fill:#fff;}.cls-2{fill:#422;}</style></defs><title>sprinkles-logo</title><path class="cls-1" d="M114.63,49.35a3.39,3.39,0,0,1-.49-.64,6.08,6.08,0,0,1-4.48,2,5.62,5.62,0,0,1-3.93-1.28l0-.06A24.79,24.79,0,0,1,62,47l-.73,3.46h-7L55.38,45a11.9,11.9,0,0,1-2.28,3.38,7,7,0,0,1-1,.79,34.71,34.71,0,0,0,64.11,1.17A4.38,4.38,0,0,1,114.63,49.35Z" transform="translate(-21.91 -1.79)"/><path class="cls-1" d="M51.66,31a4.89,4.89,0,0,1,3.83,1.62c.94,1,1.39,2.64,1.39,4.85,0,.2,0,.4,0,.6l1.46-6.9H60.2a24.81,24.81,0,0,1,45.76-7l.53,1a24.59,24.59,0,0,1,2.29,6.39l.44-.35h6.93l-6.9,4.8c0,.1,0,.2,0,.3a4,4,0,0,1,1.53,1.08A5.35,5.35,0,0,1,112,40.88a6.73,6.73,0,0,1-.17,1.54l-.38,1.73a3.62,3.62,0,0,0-.15.9.49.49,0,0,0,0,.25.92.92,0,0,0,.33,0,1.09,1.09,0,0,0,.91-.39,8,8,0,0,0,1.06-2l3.72-17.45a34.71,34.71,0,0,0-67.22,5.61A7.51,7.51,0,0,1,51.66,31Z" transform="translate(-21.91 -1.79)"/><path class="cls-1" d="M38,39.16a11.5,11.5,0,0,0-1.46-2.48c-.57-.72-1.32-1.57-2.24-2.57A27.17,27.17,0,0,1,31.77,31a4.6,4.6,0,0,1-.8-2.59,3.62,3.62,0,0,1,.89-2.51,2.9,2.9,0,0,1,2.27-1,2.43,2.43,0,0,1,1.8.66,2.39,2.39,0,0,1,.66,1.77A3.73,3.73,0,0,1,36.21,29a3.32,3.32,0,0,1-1,1.29,2.52,2.52,0,0,0,2.12,1.07,2.34,2.34,0,0,0,1.91-.9,3.67,3.67,0,0,0,.73-2.36,4.25,4.25,0,0,0-1.69-3.54,7.08,7.08,0,0,0-4.49-1.32,9.34,9.34,0,0,0-4,.83A6.92,6.92,0,0,0,27,26.39a5.53,5.53,0,0,0-1,3.24,6.3,6.3,0,0,0,1,3.39,28.69,28.69,0,0,0,2.83,3.69,28.56,28.56,0,0,1,2.7,3.55,5.78,5.78,0,0,1,.91,3.08,4.28,4.28,0,0,1-1.2,3.11,4.06,4.06,0,0,1-3,1.23,3.24,3.24,0,0,1-2.39-.9,3.2,3.2,0,0,1-.91-2.39,3.29,3.29,0,0,1,1.08-2.59,4.18,4.18,0,0,1,2.88-1,2.66,2.66,0,0,0-1-1.68,3.43,3.43,0,0,0-2.05-.61,4.3,4.3,0,0,0-2.41.73,5.23,5.23,0,0,0-1.74,2A6,6,0,0,0,21.91,44a5.63,5.63,0,0,0,.9,3.17,5.93,5.93,0,0,0,2.57,2.14,9.17,9.17,0,0,0,3.86.76,10.56,10.56,0,0,0,4.73-1,8.41,8.41,0,0,0,3.37-2.84,7,7,0,0,0,1.23-4A7.67,7.67,0,0,0,38,39.16Z" transform="translate(-21.91 -1.79)"/><path class="cls-1" d="M54.75,33.24A4,4,0,0,0,51.66,32a6,6,0,0,0-4.06,1.49l.55-2.6h-5L37.36,58.17l5.24-1.25,1.8-8.47c.49.83,1.47,1.25,3,1.25a6.73,6.73,0,0,0,5-2A11.2,11.2,0,0,0,55.1,43a20.15,20.15,0,0,0,.79-5.54A6.28,6.28,0,0,0,54.75,33.24Zm-4.11,8.14A10.64,10.64,0,0,1,49,45.11a3.25,3.25,0,0,1-2.76,1.57,1.23,1.23,0,0,1-1.32-.8l2-9.72a4.05,4.05,0,0,1,1.13-1.25,2.18,2.18,0,0,1,1.26-.45q1.74,0,1.74,2.88A18.19,18.19,0,0,1,50.64,41.38Z" transform="translate(-21.91 -1.79)"/><path class="cls-1" d="M70.27,34.74a2.74,2.74,0,0,0-.65-1.84,2.17,2.17,0,0,0-1.75-.77,4.07,4.07,0,0,0-2.07.56,14.56,14.56,0,0,0-2.13,1.59l.45-2.15h-5L55.44,49.49h5L63.22,36.3a8.22,8.22,0,0,1,1.3-1A2.49,2.49,0,0,1,65.75,35a.38.38,0,0,1,.38.21,3.22,3.22,0,0,1,.21.66,2.91,2.91,0,0,0,.4,1,1.19,1.19,0,0,0,1,.37,2.31,2.31,0,0,0,1.84-.76A2.68,2.68,0,0,0,70.27,34.74Z" transform="translate(-21.91 -1.79)"/><path class="cls-1" d="M75.61,30.26a2.71,2.71,0,0,0,2-.8,2.64,2.64,0,0,0,.82-1.95,2.78,2.78,0,0,0-2.78-2.77,2.62,2.62,0,0,0-1.94.81,2.69,2.69,0,0,0-.8,2,2.62,2.62,0,0,0,.8,1.95A2.65,2.65,0,0,0,75.61,30.26Z" transform="translate(-21.91 -1.79)"/><path class="cls-1" d="M147.92,40.67q-.42-5.18-.59-9.61l-5.14.69q-.9,2.88-1.91,5.36A44.21,44.21,0,0,1,137.92,42a3.24,3.24,0,0,0-1.3,1.23,3.39,3.39,0,0,0-.42,1,12.74,12.74,0,0,1-1.94,1.61,5.8,5.8,0,0,1-3.21.87,2.55,2.55,0,0,1-1.91-.61,3.31,3.31,0,0,1-.59-2.31c0-.23,0-.69.07-1.38a9.68,9.68,0,0,0,3.92-1.13,8.22,8.22,0,0,0,3-2.62,6.23,6.23,0,0,0,1.11-3.58q0-3.33-3.82-3.33a7.33,7.33,0,0,0-5.38,2.1,12.2,12.2,0,0,0-3.05,5,17,17,0,0,0-.94,5.28c0,.06,0,.11,0,.17a4.39,4.39,0,0,1-.81,1.13,2.63,2.63,0,0,1-1.87.85,1.63,1.63,0,0,1-1.1-.3,1.24,1.24,0,0,1-.33-1,4.46,4.46,0,0,1,.14-1.12l4-18.74-5.13.69-3.72,17.39a8.24,8.24,0,0,1-1.25,2.31,2,2,0,0,1-1.66.75c-.91,0-1.36-.43-1.36-1.28a4.12,4.12,0,0,1,.18-1.12l.38-1.73a5.87,5.87,0,0,0,.14-1.32,4.41,4.41,0,0,0-1-2.92,3.54,3.54,0,0,0-2.85-1.14,4.17,4.17,0,0,0-1.15.14l7-4.83h-3.44l-6.7,5.28,2.6-12.22-5.13.69L96.62,43.27h0a8.24,8.24,0,0,1-1.25,2.31,2,2,0,0,1-1.66.75A1.35,1.35,0,0,1,92.62,46a1.67,1.67,0,0,1-.31-1.08,7.91,7.91,0,0,1,.22-1.61q.23-1,.51-2.1c.3-1.18.53-2.18.69-3A11.71,11.71,0,0,0,94,35.92a3.85,3.85,0,0,0-1-3,4,4,0,0,0-2.81-1,5.29,5.29,0,0,0-4.06,1.95l.38-1.81h-5L79.08,43.28a4.91,4.91,0,0,1-1.25,2.2,2.63,2.63,0,0,1-1.87.85,1.63,1.63,0,0,1-1.1-.3,1.24,1.24,0,0,1-.33-1,4.46,4.46,0,0,1,.14-1.12l2.5-11.8h-5L69.81,43.27a12.43,12.43,0,0,0-.27,2.26,4.32,4.32,0,0,0,1,3.13,3.62,3.62,0,0,0,2.69,1,7.19,7.19,0,0,0,4-1.34,5.2,5.2,0,0,0,.93-.79l-.41,1.92h5l2.36-11.14A6.91,6.91,0,0,1,86.23,36a2,2,0,0,1,1.6-.89c.83,0,1.25.59,1.25,1.77a10,10,0,0,1-.24,1.91c-.17.79-.34,1.59-.52,2.4q-.07.24-.27,1.11c-.12.58-.24,1.17-.36,1.78a8.71,8.71,0,0,0-.17,1.65,4.1,4.1,0,0,0,1,2.8,3.92,3.92,0,0,0,3.1,1.13,5.67,5.67,0,0,0,3.49-1.3,5.5,5.5,0,0,0,.54-.54l-.35,1.63h5l1.81-8.58a9,9,0,0,1,1.4-1,2.52,2.52,0,0,1,1.16-.31c.84,0,1.25.56,1.25,1.67a5.72,5.72,0,0,1-.13,1.28l-.28,1.35a8.61,8.61,0,0,0-.21,1.81,3.78,3.78,0,0,0,1.11,2.93,4.62,4.62,0,0,0,3.26,1,5.62,5.62,0,0,0,4.77-3,3.39,3.39,0,0,0,3.6,3,7.19,7.19,0,0,0,4-1.34,6.47,6.47,0,0,0,1.72-1.8,4.23,4.23,0,0,0,1.09,1.8,5.61,5.61,0,0,0,4,1.34,9.76,9.76,0,0,0,7.38-3.49,4.79,4.79,0,0,0,.43,1.18,4.19,4.19,0,0,0,1.7,1.66,5.71,5.71,0,0,0,2.82.65,9.24,9.24,0,0,0,3.21-.59,6.14,6.14,0,0,0,2.65-2,5.39,5.39,0,0,0,1.08-3.47C148.09,43.07,148,42.06,147.92,40.67Zm-17.31-4.82c.8-1.46,1.62-2.19,2.45-2.19.58,0,.87.47.87,1.42a5.57,5.57,0,0,1-.71,2.71,6.4,6.4,0,0,1-1.88,2.12,4.63,4.63,0,0,1-2.45.9A16.6,16.6,0,0,1,130.61,35.85Zm11.58,10.34A3.14,3.14,0,0,1,140,47a2,2,0,0,1-1.62-.59,2.81,2.81,0,0,1-.5-1.84.91.91,0,0,0,.93.46,1.4,1.4,0,0,0,1.1-.52,1.82,1.82,0,0,0,.43-1.19,1.3,1.3,0,0,0-.8-1.21,40.72,40.72,0,0,0,2.82-6.56q.1,1.35.45,5.31a28,28,0,0,1,.21,2.92A3.12,3.12,0,0,1,142.19,46.19Z" transform="translate(-21.91 -1.79)"/><path class="cls-2" d="M55.94,22.23l.45-.89,2.29,1.15.48-.95-2.3-1.15.45-.88,5.63,2.82-.44.88L60,21.94l-.47.95L62,24.16l-.44.89Z" transform="translate(-21.91 -1.79)"/><path class="cls-2" d="M63.13,21.43A1.61,1.61,0,0,1,62,21.08L59.22,19.2a1.66,1.66,0,0,1-.74-1,1.49,1.49,0,0,1,.29-1.16,1.47,1.47,0,0,1,1-.68,1.65,1.65,0,0,1,1.18.35l2.73,1.88a1.69,1.69,0,0,1,.74,1,1.46,1.46,0,0,1-.3,1.16A1.42,1.42,0,0,1,63.13,21.43Zm0-2-2.82-1.95c-.34-.24-.61-.22-.81.07s-.12.54.22.77l2.83,2c.34.23.61.21.8-.07S63.49,19.7,63.14,19.46Z" transform="translate(-21.91 -1.79)"/><path class="cls-2" d="M60.56,14.76l1-1,3.69,2.67h0l-2.82-3.58,1-1L68,16.16l-.65.68-3.44-3.31,0,0,3,3.82-.58.6-3.94-2.79v0l3.44,3.3-.6.62Z" transform="translate(-21.91 -1.79)"/><path class="cls-2" d="M64.55,10.85,66.7,9.22l.54.71-1.36,1,1,1.32L68,11.47l.55.72L67.44,13l1.17,1.54,1.36-1,.55.72-2.15,1.63Z" transform="translate(-21.91 -1.79)"/><path class="cls-2" d="M70.85,13.65a1.67,1.67,0,0,1-.91-.83l-.18-.31.8-.47.22.37q.31.52.75.27a.48.48,0,0,0,.26-.32.76.76,0,0,0-.13-.48,1.25,1.25,0,0,0-.51-.51,3,3,0,0,0-.94-.29A4.16,4.16,0,0,1,69,10.66a2,2,0,0,1-.7-.73A1.66,1.66,0,0,1,68,8.74a1.41,1.41,0,0,1,.75-.9,1.37,1.37,0,0,1,1.13-.19,1.7,1.7,0,0,1,.91.83l.13.23-.81.47L70,8.9a.78.78,0,0,0-.35-.35.47.47,0,0,0-.39.06c-.29.16-.33.42-.13.77a1.25,1.25,0,0,0,.48.46,3.55,3.55,0,0,0,.94.28,4.13,4.13,0,0,1,1.24.42,2.27,2.27,0,0,1,.72.78,1.7,1.7,0,0,1,.27,1.22,1.49,1.49,0,0,1-.76.92A1.38,1.38,0,0,1,70.85,13.65Z" transform="translate(-21.91 -1.79)"/><path class="cls-2" d="M72.17,7.2l-1,.41-.35-.83,2.81-1.2.35.83-1,.4,2.12,5-.91.39Z" transform="translate(-21.91 -1.79)"/><path class="cls-2" d="M76.6,8.45,74.48,5.29l1-.28,1.27,2h0l0-2.41.93-.26-.19,3.81.73,2.58-1,.27Z" transform="translate(-21.91 -1.79)"/><path class="cls-2" d="M78.75,4.2l1-.15.79,5.35,1.61-.24.13.89-2.59.38Z" transform="translate(-21.91 -1.79)"/><path class="cls-2" d="M82.4,3.73l2.7-.06,0,.9-1.7,0,0,1.66,1.36,0,0,.9-1.36,0,0,1.94,1.71,0,0,.9-2.7.07Z" transform="translate(-21.91 -1.79)"/><path class="cls-2" d="M89.49,4.1l1,.18-1.12,6.2-1-.18Z" transform="translate(-21.91 -1.79)"/><path class="cls-2" d="M90.31,10.35a1.62,1.62,0,0,1,0-1.2l.93-3.25a1.6,1.6,0,0,1,.67-1A1.42,1.42,0,0,1,93,4.81a1.44,1.44,0,0,1,.93.68,1.63,1.63,0,0,1,0,1.2l-.18.64-.9-.25.2-.7c.11-.38,0-.61-.31-.7s-.53.05-.64.43l-1,3.38c-.11.37,0,.6.31.69s.53,0,.64-.42l.26-.92.9.25-.24.86a1.7,1.7,0,0,1-.67,1,1.42,1.42,0,0,1-1.16.09A1.4,1.4,0,0,1,90.31,10.35Z" transform="translate(-21.91 -1.79)"/><path class="cls-2" d="M95.5,5.7,98,6.76l-.35.82-1.57-.67L95.4,8.45,96.66,9l-.36.83-1.25-.54-.76,1.79,1.58.66-.35.83L93,11.5Z" transform="translate(-21.91 -1.79)"/><path class="cls-2" d="M97.47,13.29a1.62,1.62,0,0,1,.32-1.16L99.65,9.3a1.61,1.61,0,0,1,.95-.74,1.38,1.38,0,0,1,1.12.26,1.4,1.4,0,0,1,.69.93,1.67,1.67,0,0,1-.32,1.16l-.37.56-.78-.52.4-.61c.22-.32.19-.57-.09-.76s-.52-.11-.74.22l-1.94,2.93c-.21.32-.18.57.1.76s.52.11.73-.21l.53-.8.78.51-.49.75a1.63,1.63,0,0,1-.94.74,1.4,1.4,0,0,1-1.13-.26A1.38,1.38,0,0,1,97.47,13.29Z" transform="translate(-21.91 -1.79)"/><path class="cls-2" d="M103.86,10.44l1.1,1a1.49,1.49,0,0,1,.61,1,1.48,1.48,0,0,1-.46,1.05l-.25.29a1.17,1.17,0,0,1-1.31.51v0a.77.77,0,0,1,.09.66,2.27,2.27,0,0,1-.47.77l-.73.83a3.89,3.89,0,0,0-.27.34,1,1,0,0,0-.15.31l-.76-.66a1.69,1.69,0,0,1,.13-.27l.31-.38.76-.86a1,1,0,0,0,.29-.55.58.58,0,0,0-.25-.44l-.26-.23-1.77,2-.75-.65Zm-.76,2.92a.6.6,0,0,0,.43.18.69.69,0,0,0,.45-.29l.32-.36a.89.89,0,0,0,.24-.46.47.47,0,0,0-.19-.36l-.34-.3-1.18,1.35Z" transform="translate(-21.91 -1.79)"/><path class="cls-2" d="M107,13.31l1.79,2-.68.59L107,14.65l-1.25,1.1.9,1-.68.59-.89-1-1.46,1.28,1.13,1.28-.68.6-1.78-2Z" transform="translate(-21.91 -1.79)"/><path class="cls-2" d="M109.9,16.89l.75,1.11L106,22.37l-.55-.82.94-.85h0l-.62-.93-1.13.54-.51-.77ZM107,20.14,109.35,18h0l-2.83,1.38Z" transform="translate(-21.91 -1.79)"/><path class="cls-2" d="M111.86,19.93l.59,1.29-3.83,2.46h0L113,22.38l.59,1.28-5.72,2.64-.4-.85,4.34-2v0l-4.64,1.35-.34-.75,4-2.66h0l-4.33,2-.36-.78Z" transform="translate(-21.91 -1.79)"/><path class="cls-2" d="M67.4,64.11a1.66,1.66,0,0,1,.27-1.2l.18-.31.81.47-.22.37c-.2.36-.16.62.14.79a.49.49,0,0,0,.4.06.7.7,0,0,0,.36-.35,1.38,1.38,0,0,0,.19-.69,3.09,3.09,0,0,0-.21-1A4,4,0,0,1,69.06,61a2,2,0,0,1,.28-1,1.67,1.67,0,0,1,.91-.81,1.39,1.39,0,0,1,1.16.19,1.34,1.34,0,0,1,.72.89,1.65,1.65,0,0,1-.27,1.2l-.13.23-.81-.47.16-.28a.75.75,0,0,0,.13-.47A.46.46,0,0,0,71,60.2c-.28-.16-.53-.07-.73.28a1.29,1.29,0,0,0-.16.64,3.59,3.59,0,0,0,.23,1,4,4,0,0,1,.25,1.28,2.25,2.25,0,0,1-.32,1,1.67,1.67,0,0,1-.92.84,1.42,1.42,0,0,1-1.17-.2A1.36,1.36,0,0,1,67.4,64.11Z" transform="translate(-21.91 -1.79)"/><path class="cls-2" d="M73.12,60.43l.9.41-2.61,5.73-.9-.41Z" transform="translate(-21.91 -1.79)"/><path class="cls-2" d="M74.62,61.12l1.17.41-.31,3.88h0l1.22-3.56.84.28-2,6-1-.33L74.92,63h0l-1.49,4.35-.83-.29Z" transform="translate(-21.91 -1.79)"/><path class="cls-2" d="M77.42,68.23a1.58,1.58,0,0,1-.15-1.2l.63-3.32a1.64,1.64,0,0,1,.58-1.05,1.65,1.65,0,0,1,2.13.4,1.62,1.62,0,0,1,.16,1.2l-.13.65-.92-.17.14-.72c.07-.38,0-.61-.38-.67s-.52.1-.59.48l-.66,3.46c-.08.38,0,.6.37.66s.53-.1.6-.47l.18-1,.92.18-.17.87a1.62,1.62,0,0,1-.58,1,1.65,1.65,0,0,1-2.13-.4Z" transform="translate(-21.91 -1.79)"/><path class="cls-2" d="M81.59,62.88l2.69.17,0,.89-1.71-.1-.1,1.66,1.35.08,0,.9-1.36-.08-.12,1.93,1.71.11-.06.89-2.69-.16Z" transform="translate(-21.91 -1.79)"/><path class="cls-2" d="M87.75,64.3l-1,.13-.08-.7a2.31,2.31,0,0,0,.66-.15.88.88,0,0,0,.38-.29,1.35,1.35,0,0,0,.21-.51l.66-.08L89.31,69l-1,.12Z" transform="translate(-21.91 -1.79)"/><path class="cls-2" d="M91.54,68.22a1.66,1.66,0,0,1-.67-1l0-.12.91-.24,0,.18c.11.4.32.56.65.47a.52.52,0,0,0,.36-.27,1,1,0,0,0,0-.62l-.31-1.17h0a.9.9,0,0,1-.73.76,1,1,0,0,1-.88-.15,1.71,1.71,0,0,1-.55-1L90,64a1.64,1.64,0,0,1,.07-1.23,1.5,1.5,0,0,1,1-.69,1.46,1.46,0,0,1,1.18.12,1.6,1.6,0,0,1,.67,1l.84,3.15c.27,1.06-.07,1.71-1,2A1.42,1.42,0,0,1,91.54,68.22Zm.68-3.75-.28-1.08c-.11-.39-.32-.54-.65-.46s-.45.33-.34.73l.28,1.07c.11.41.32.56.66.47S92.33,64.87,92.22,64.47Z" transform="translate(-21.91 -1.79)"/><path class="cls-2" d="M95.7,67a1.63,1.63,0,0,1-.8-.94l0-.11.86-.35.07.16c.16.38.39.51.71.38a.51.51,0,0,0,.32-.32,1,1,0,0,0-.11-.61l-.46-1.11h0a.91.91,0,0,1-.62.85,1,1,0,0,1-.9,0,1.75,1.75,0,0,1-.66-.88l-.43-1a1.59,1.59,0,0,1-.09-1.23,1.46,1.46,0,0,1,.87-.81,1.42,1.42,0,0,1,1.19,0,1.61,1.61,0,0,1,.8.93l1.25,3a1.39,1.39,0,0,1-.77,2.09A1.41,1.41,0,0,1,95.7,67Zm.18-3.8-.43-1c-.16-.38-.39-.5-.71-.37s-.39.39-.24.76l.43,1c.16.39.4.51.71.38S96,63.55,95.88,63.17Z" transform="translate(-21.91 -1.79)"/><path class="cls-2" d="M99.64,65.2a1.57,1.57,0,0,1-.93-.8l-.28-.48a1.77,1.77,0,0,1-.26-.76,1.13,1.13,0,0,1,.17-.68h0a1.07,1.07,0,0,1-.64-.18,1.7,1.7,0,0,1-.52-.59l-.13-.22a1.62,1.62,0,0,1-.24-1.2,1.76,1.76,0,0,1,1.93-1.13,1.59,1.59,0,0,1,.92.8l.14.23a1.29,1.29,0,0,1,.09,1.38v0a1.12,1.12,0,0,1,.68.18,1.87,1.87,0,0,1,.53.6l.28.49a1.4,1.4,0,0,1-.56,2.12A1.53,1.53,0,0,1,99.64,65.2ZM99,60.86l-.24-.43c-.22-.36-.47-.46-.77-.28s-.35.44-.14.8l.25.43c.21.36.47.46.77.28S99.25,61.22,99,60.86Zm1.47,2.44-.31-.52c-.24-.41-.52-.53-.84-.34s-.36.49-.12.9l.3.52q.36.61.84.33C100.7,64,100.74,63.71,100.51,63.3Z" transform="translate(-21.91 -1.79)"/></svg>